<svg xmlns="http://www.w3.org/2000/svg" xmlns:xlink="http://www.w3.org/1999/xlink" width="2000px" height="2000px" viewBox="0 0 2000 2000">
    <g id="a01309f5-32a1-4d59-b302-99052ee35d91">
<rect style="stroke: rgb(193,193,193); stroke-opacity: 1.00; stroke-width: 0; stroke-dasharray: none; stroke-linecap: butt; stroke-dashoffset: 0; stroke-linejoin: miter; stroke-miterlimit: 4; fill: rgb(255,255,255); fill-opacity: 1.00; fill-rule: nonzero; opacity: 1;" x="-1000" y="-1000" rx="0" ry="0" width="2000" height="2000" transform="matrix(1 0 0 1 1000 1000)"></rect>
</g>
<g id="4ebe1c40-9591-4e14-bb81-d8388e802f43">
<g style="">
		<g id="4ebe1c40-9591-4e14-bb81-d8388e802f43-child-0">
<path style="stroke: rgb(193,193,193); stroke-opacity: 1.00; stroke-width: 0; stroke-dasharray: none; stroke-linecap: butt; stroke-dashoffset: 0; stroke-linejoin: miter; stroke-miterlimit: 4; fill: rgb(0,0,0); fill-opacity: 1.00; fill-rule: nonzero; opacity: 1;" transform="matrix(2.068708 0 0 2.068708 1000.000071 1000.000063) matrix(1 0 0 1 0 0)  translate(-191.895635, -242.2895)" d="M 70.75 272.06 C 62.44 278.41 58.07 277.17 55.48 267.89 C 54.53 270.33 53.67 272.85 52.57 275.26 C 51.31 277.99 49.81 280.58 46.13 280.27 C 42.32 279.95 40.58 277.08 40.27 274.05 C 39.62 267.51 39.00 260.82 39.69 254.33 C 40.25 249.03 42.72 243.93 44.37 238.74 C 44.73 237.58 45.22 236.45 45.65 235.31 C 45.44 235.08 45.24 234.84 45.03 234.61 C 43.75 235.46 42.48 236.35 41.17 237.16 C 38.68 238.72 36.16 240.81 33.08 238.82 C 29.95 236.79 29.47 233.45 30.19 230.17 C 33.01 217.16 40.84 208.52 53.52 204.39 C 61.11 201.91 68.96 201.53 76.86 201.70 C 77.50 201.72 78.15 201.63 78.74 201.29 C 62.66 197.72 47.36 198.73 33.66 209.11 C 32.32 210.13 31.07 211.30 29.64 212.18 C 26.20 214.33 23.23 213.37 21.28 209.75 C 18.84 205.22 19.96 200.77 21.49 196.32 C 21.89 195.19 22.43 194.10 22.90 192.99 C 22.63 192.84 18.55 198.01 16.90 200.82 C 15.05 203.95 13.63 207.38 11.49 210.29 C 8.08 214.92 2.68 214.28 1.33 208.75 C 0.10 203.71 -0.52 198.00 0.55 193.00 C 5.28 170.84 16.27 152.27 35.94 140.31 C 56.32 127.92 77.57 128.90 98.66 139.20 C 112.31 145.87 122.33 156.59 131.16 168.62 C 134.07 172.58 136.85 176.67 140.15 180.30 C 149.15 190.22 160.74 193.65 173.72 192.18 C 197.97 189.43 213.46 175.06 222.41 153.35 C 230.56 133.59 237.72 113.43 245.30 93.43 C 247.58 87.43 249.92 81.45 252.04 75.39 C 257.33 60.26 265.10 46.86 278.54 37.15 C 275.86 30.19 274.86 23.17 277.70 16.18 C 279.03 12.92 280.97 9.92 282.64 6.80 C 283.07 6.85 283.51 6.91 283.94 6.97 C 284.82 8.31 285.65 9.69 286.59 10.99 C 291.33 17.59 297.06 17.35 301.12 10.32 C 302.16 8.52 302.80 6.49 303.64 4.57 C 304.18 3.33 304.73 2.10 305.66 -0.00 C 306.88 1.77 307.66 2.81 308.34 3.92 C 309.45 5.70 310.28 7.70 311.60 9.30 C 314.47 12.78 318.76 12.78 321.77 9.39 C 322.88 8.13 323.78 6.68 324.64 5.23 C 325.47 3.84 326.13 2.34 326.86 0.89 C 327.21 0.84 327.56 0.79 327.91 0.74 C 328.75 2.53 329.55 4.33 330.43 6.09 C 331.53 8.34 332.35 10.84 333.90 12.72 C 337.59 17.22 342.30 17.05 346.01 12.57 C 347.34 10.97 348.51 9.24 350.84 7.43 C 351.33 9.14 352.03 10.81 352.28 12.56 C 352.68 15.33 352.46 18.21 353.07 20.93 C 354.54 27.52 357.45 29.09 363.89 27.24 C 364.41 27.09 364.98 27.09 365.47 27.02 C 373.09 36.26 371.86 53.44 362.79 62.34 C 370.78 68.73 380.23 73.81 383.79 84.28 L 352.75 84.28 C 352.59 84.58 352.44 84.88 352.28 85.18 C 358.98 88.92 365.79 92.67 367.78 100.71 C 368.63 104.18 368.71 107.83 369.13 111.30 C 361.10 113.30 354.81 111.07 342.39 102.08 C 341.74 103.81 341.16 105.42 340.55 107.02 C 336.92 116.57 330.79 123.34 320.21 124.97 C 318.21 125.27 316.12 125.01 313.43 125.01 C 314.82 130.56 316.07 135.95 317.53 141.28 C 323.32 162.49 329.41 183.62 334.90 204.91 C 336.98 213.00 338.47 221.40 338.96 229.73 C 339.99 247.01 334.36 262.52 324.72 276.76 C 312.14 295.33 294.92 308.73 276.40 320.71 C 265.44 327.80 254.36 334.70 243.43 341.85 C 228.14 351.84 217.70 365.85 210.40 382.38 C 209.27 384.94 208.23 387.54 207.06 390.09 C 205.60 393.29 204.81 393.59 202.24 391.04 C 196.34 385.19 190.68 379.11 184.88 373.16 C 182.13 370.33 179.35 367.54 176.46 364.86 C 175.36 363.83 174.02 362.73 172.62 362.41 C 159.82 359.49 149.72 352.01 140.45 343.28 C 127.16 330.76 117.91 315.40 110.13 299.05 C 104.70 287.67 99.68 276.04 91.57 266.18 C 89.48 263.64 86.89 261.50 84.52 259.17 C 82.26 260.73 80.59 261.89 78.85 263.10 C 89.62 275.18 95.68 289.89 102.49 304.20 C 110.20 320.39 119.31 335.69 132.43 348.19 C 143.20 358.45 155.35 366.58 169.71 371.12 C 171.46 371.67 173.01 373.18 174.37 374.54 C 183.81 384.01 193.13 393.60 202.60 403.04 C 206.44 406.87 209.14 406.45 211.80 401.52 C 214.19 397.10 216.36 392.53 218.26 387.87 C 226.64 367.23 241.35 352.48 260.35 341.37 C 278.04 331.04 295.31 320.02 310.71 306.37 C 327.65 291.35 340.45 273.71 346.23 251.40 C 349.93 237.09 349.15 222.87 345.38 208.91 C 338.37 183.00 330.72 157.25 323.34 131.43 C 323.08 130.52 322.95 129.57 322.71 128.35 C 325.75 126.86 328.73 125.39 332.14 123.72 C 333.87 129.70 335.55 135.43 337.17 141.17 C 342.63 160.43 348.29 179.63 353.43 198.97 C 358.87 219.47 360.92 240.14 354.22 260.84 C 349.49 275.45 341.78 288.34 331.78 299.95 C 314.25 320.30 291.97 334.47 269.43 348.34 C 260.72 353.70 251.76 358.76 244.48 366.15 C 237.28 373.46 232.30 382.16 228.22 391.46 C 225.47 397.74 222.68 404.01 219.80 410.23 C 218.87 412.25 217.94 414.45 216.41 415.97 C 213.04 419.33 212.13 423.19 212.21 427.81 C 212.43 439.77 212.38 451.75 212.22 463.72 C 212.18 466.84 213.28 468.40 216.24 469.03 C 225.26 470.93 234.26 472.89 243.26 474.85 C 251.04 476.55 258.85 478.15 266.57 480.10 C 269.08 480.74 271.35 482.34 273.73 483.49 C 273.59 483.86 273.45 484.22 273.32 484.58 L 158.62 484.58 C 159.35 479.28 161.72 476.59 166.76 475.66 C 175.86 473.97 184.97 472.39 194.07 470.71 C 199.06 469.79 199.62 468.96 199.56 464.08 C 199.38 450.28 199.15 436.47 199.22 422.67 C 199.24 419.71 198.30 417.52 196.53 415.46 C 189.46 407.25 182.15 399.24 175.36 390.80 C 170.26 384.46 163.95 380.47 156.56 377.20 C 132.25 366.47 114.65 348.21 101.81 325.38 C 94.46 312.32 88.22 298.65 81.47 285.26 C 78.91 280.18 75.64 275.67 70.75 272.06 Z M 349.03 58.70 C 349.23 58.59 349.43 58.48 349.63 58.37 C 348.67 56.74 347.88 54.97 346.73 53.49 C 335.93 39.52 316.89 33.72 298.90 39.03 C 282.26 43.94 271.13 55.29 264.84 70.91 C 256.38 91.90 249.01 113.32 241.00 134.48 C 236.25 147.00 231.79 159.62 224.93 171.26 C 206.30 202.85 161.40 214.22 131.38 192.46 C 123.07 186.44 115.06 180.01 106.55 174.30 C 89.51 162.85 70.85 157.56 50.24 161.15 C 44.05 162.23 38.25 164.38 32.81 168.44 C 41.64 165.03 50.11 164.11 56.57 163.70 C 63.13 163.28 69.74 163.77 76.36 165.11 C 94.07 168.68 108.63 177.76 120.26 191.56 C 131.95 205.42 147.32 212.12 164.98 212.63 C 190.50 213.36 211.30 202.88 227.48 183.26 C 234.98 174.16 239.46 163.38 243.58 152.52 C 252.50 129.00 261.13 105.36 269.84 81.75 C 273.58 71.62 278.78 62.50 286.83 55.07 C 300.78 42.19 321.09 39.42 337.07 48.92 C 341.44 51.53 345.06 55.41 349.03 58.70 Z M 220.84 274.94 C 220.57 274.60 184.63 298.55 171.27 309.66 C 172.51 310.07 173.16 310.40 173.84 310.49 C 174.95 310.63 176.08 310.67 177.21 310.67 C 200.44 310.74 221.86 304.40 241.13 291.57 C 260.55 278.64 271.48 260.17 274.33 236.90 C 267.78 256.66 256.77 273.11 239.67 285.34 C 223.46 296.93 195.67 306.70 183.27 305.91 C 193.44 297.32 210.87 283.38 220.84 274.94 Z M 171.37 285.21 C 191.49 275.91 208.95 263.41 221.68 244.09 C 204.55 258.09 187.96 271.65 171.37 285.21 Z M 329.94 68.17 C 329.90 62.35 325.54 57.92 319.91 58.00 C 314.80 58.08 310.23 63.09 310.43 68.39 C 310.61 73.38 315.33 77.75 320.55 77.77 C 326.19 77.79 329.97 73.92 329.94 68.17 Z M 320.13 61.69 C 316.91 61.85 313.97 64.95 314.06 68.09 C 314.16 71.52 317.20 74.22 320.86 74.11 C 324.30 74.01 326.51 71.44 326.44 67.62 C 326.37 64.34 323.39 61.54 320.13 61.69 Z" stroke-linecap="round"></path>
</g>
</g>
</g>

  </svg>